<svg width="378" height="58" viewBox="0 0 378 58" fill="none" xmlns="http://www.w3.org/2000/svg">
<g clip-path="url(#clip0_2851_4601)">
<mask id="mask0_2851_4601" style="mask-type:luminance" maskUnits="userSpaceOnUse" x="0" y="0" width="378" height="58">
<path d="M378 0H0V57.5H378V0Z" fill="white"/>
</mask>
<g mask="url(#mask0_2851_4601)">
<path d="M21.9004 33.4001H35.7004L28.8004 21.6001L21.9004 33.4001Z" fill="#05588F"/>
<path d="M28.8 0C12.9 0 0 12.9 0 28.7C0 44.6 12.9 57.4 28.8 57.4C44.7 57.4 57.6 44.5 57.6 28.7C57.6 12.9 44.7 0 28.8 0ZM49.3 43L32.8 14.8L32.4 15.4L46.9 40.1C47.6 41.3 46.7 42.9 45.3 42.9L30.8 18.2L30.4 18.8L42.9 40.1C43.6 41.3 42.7 42.9 41.3 42.9H8.3C6.9 42.9 6 41.4 6.7 40.1H39.7L39.3 39.5H10.3C8.9 39.5 8 38 8.7 36.7H37.7L37.3 36.1H12.3C10.9 36.1 10 34.6 10.7 33.4V33.3L27.2 5.3C27.9 4.1 29.7 4.1 30.4 5.3L14 33.4H14.7L29.2 8.7C29.9 7.5 31.7 7.5 32.4 8.7L17.9 33.4H18.6L31.1 12.1C31.8 10.9 33.6 10.9 34.3 12.1L50.8 40.2C51.6 41.4 50.7 43 49.3 43Z" fill="#05588F"/>
<path d="M74.5996 39.2L72.8996 47.9H65.5996L73.0996 13.4C73.5996 11.1 75.5996 9.5 77.9996 9.5H82.9996L90.4996 47.9H83.1996L81.4996 39.2H74.5996ZM80.8996 33.4L79.5996 25.3C79.1996 23 78.6996 19.1 78.2996 16.6H78.0996C77.6996 19.2 77.0996 23.1 76.6996 25.3L75.2996 33.4H80.8996Z" fill="#05588F"/>
<path d="M117.3 9.5V47.9H109.8V15.4H104.1V25.6C104.1 34.5 103.5 44.2 98.7004 48C97.3004 49.1 95.4004 48 93.5004 48L91.9004 41.8C92.8004 41.6 93.8004 41.1 94.5004 40.5C96.8004 38.2 97.3004 33.9 97.3004 26.4V9.5H117.3Z" fill="#05588F"/>
<path d="M129.4 9.5V23.9C130 23.8 130.9 23.7 132.4 23.7C139.7 23.7 144.4 28.2 144.4 35.5C144.4 39.3 143.2 42.1 141.2 44.2C138.6 46.9 134.4 48 128.9 48C126 48 123.6 48.3 121.9 48V9.5H129.4ZM129.5 42.2C130 42.3 130.5 42.3 130.9 42.3C134.7 42.3 136.7 39.4 136.7 35.9C136.7 32.4 134.8 29.7 131.2 29.7C130.6 29.7 129.9 29.8 129.5 29.9V42.2Z" fill="#05588F"/>
<path d="M165.9 9.5V12.1C172.4 13 177.4 18.1 177.4 28.5C177.4 39.6 172.4 44.2 165.9 45.2V47.9H159.7V45.2C153.1 44.2 148.2 39.6 148.2 28.6C148.2 18 154.1 13 159.7 12.1V9.5H165.9ZM159.7 17.2C157.5 17.8 155.2 20.7 155.2 28.7C155.2 36.2 157.5 39.5 159.7 40V17.2ZM165.9 40C168.2 39.5 170.4 36.6 170.4 28.5C170.4 20.4 167.9 17.7 165.9 17.2V40Z" fill="#05588F"/>
<path d="M188.3 39.2L186.6 47.9H179.3L187.7 9.5H196.7L204.2 47.9H196.9L195.2 39.2H188.3ZM194.5 33.4L193.2 25.3C192.8 23 192.3 19.1 191.9 16.6H191.7C191.3 19.2 190.7 23.1 190.3 25.3L188.9 33.4H194.5Z" fill="#05588F"/>
<path d="M252.1 39.2L250.4 47.9H243.1L251.5 9.5H260.5L268 47.9H260.7L259 39.2H252.1ZM258.4 33.4L257.1 25.3C256.7 23 256.2 19.1 255.8 16.6H255.6C255.2 19.2 254.6 23.1 254.2 25.3L252.8 33.4H258.4Z" fill="#05588F"/>
<path d="M232.7 34.3C232.5 30.7 232.2 25.7 232.4 21.6H232.2C231.5 25.7 230.5 30.4 229.7 33.4L226.2 47.9H221.3L217.9 33.6C217.2 30.5 216.1 25.7 215.6 21.6H215.4C215.3 25.8 215.1 30.6 214.8 34.4L214.2 47.9H207.7L210.5 9.5H218.4L221.5 23.3C222.6 28.1 223.6 32.4 224.2 36.7H224.3C224.9 32.4 225.7 28.1 226.8 23.3L229.8 9.5H237.7L240.1 47.9H233.4L232.7 34.3Z" fill="#05588F"/>
<path d="M275.3 16.2H266.3V9.5H292.6V16.3H282.8V48H275.3V16.2Z" fill="#05588F"/>
<path d="M302.5 9.6001V18.1001C302.5 25.1001 302 31.7001 301.8 35.7001H301.9C303 32.4001 304.9 27.4001 306 24.5001L311.6 9.7001H318.4V48.0001H311.9V39.3001C311.9 31.6001 312.2 26.0001 312.4 22.1001H312.3C311.4 25.6001 309.7 30.2001 308.5 33.3001L302.9 47.9001H296V9.6001H302.5Z" fill="#05588F"/>
<path d="M330.3 9.6001V26.2001H330.9L337.1 9.6001H345.3L336.5 27.3001C340.4 28.8001 341.7 32.4001 342.8 37.0001C343.7 40.7001 344.3 44.4001 345.4 47.9001H338C337.1 45.2001 336.5 42.0001 335.9 39.0001C335 34.5001 334 31.6001 330.9 31.6001H330.3V47.9001H323V9.6001H330.3Z" fill="#05588F"/>
<path d="M355.7 39.1001L354 47.9001H346.8L355.1 9.6001H364C364 9.6001 368 29.6001 369.7 38.8001C371.4 48.0001 366.1 47.9001 366.1 47.9001H364.2L362.6 39.1001H355.7ZM361.9 33.3001L360.7 25.3001C360.3 23.0001 359.8 19.2001 359.5 16.6001H359.3C358.9 19.2001 358.3 23.1001 357.9 25.3001L356.5 33.2001H361.9V33.3001Z" fill="#05588F"/>
</g>
</g>
<defs>
<clipPath id="clip0_2851_4601">
<rect width="378" height="58" fill="white"/>
</clipPath>
</defs>
</svg>
