<svg width="58" height="58" viewBox="0 0 58 58" fill="none" xmlns="http://www.w3.org/2000/svg">
<g clip-path="url(#clip0_2851_4601)">
<mask id="mask0_2851_4601" style="mask-type:luminance" maskUnits="userSpaceOnUse" x="0" y="0" width="378" height="58">
<path d="M378 0H0V57.5H378V0Z" fill="white"/>
</mask>
<g mask="url(#mask0_2851_4601)">
<path d="M21.9004 33.4001H35.7004L28.8004 21.6001L21.9004 33.4001Z" fill="#05588F"/>
<path d="M28.8 0C12.9 0 0 12.9 0 28.7C0 44.6 12.9 57.4 28.8 57.4C44.7 57.4 57.6 44.5 57.6 28.7C57.6 12.9 44.7 0 28.8 0ZM49.3 43L32.8 14.8L32.4 15.4L46.9 40.1C47.6 41.3 46.7 42.9 45.3 42.9L30.8 18.2L30.4 18.8L42.9 40.1C43.6 41.3 42.7 42.9 41.3 42.9H8.3C6.9 42.9 6 41.4 6.7 40.1H39.7L39.3 39.5H10.3C8.9 39.5 8 38 8.7 36.7H37.7L37.3 36.1H12.3C10.9 36.1 10 34.6 10.7 33.4V33.3L27.2 5.3C27.9 4.1 29.7 4.1 30.4 5.3L14 33.4H14.7L29.2 8.7C29.9 7.5 31.7 7.5 32.4 8.7L17.9 33.4H18.6L31.1 12.1C31.8 10.9 33.6 10.9 34.3 12.1L50.8 40.2C51.6 41.4 50.7 43 49.3 43Z" fill="#05588F"/>
</g>
</g>
<defs>
<clipPath id="clip0_2851_4601">
<rect width="378" height="58" fill="white"/>
</clipPath>
</defs>
</svg>
